<svg xmlns="http://www.w3.org/2000/svg" width="32" height="32" viewBox="0 0 64 64" role="img" aria-label="Tasty Treats">
  <defs>
    <linearGradient id="g" x1="0" y1="0" x2="1" y2="1">
      <stop offset="0%" stop-color="#A7D59A"/>
      <stop offset="100%" stop-color="#7FB56E"/>
    </linearGradient>
  </defs>

  <!-- Rounded square background -->
  <rect x="4" y="4" width="56" height="56" rx="14" fill="url(#g)"/>

  <!-- Cloche (servis kubbesi) -->
  <g fill="#FFFFFF">
    <!-- handle -->
    <circle cx="32" cy="21" r="2.4"/>
    <!-- dome -->
    <path d="M18 33a14 14 0 0 1 28 0H18z"/>
    <!-- base -->
    <path d="M18 34h28v4a2 2 0 0 1-2 2H20a2 2 0 0 1-2-2v-4z"/>
    <!-- tiny sparkle -->
    <path d="M45 17l1.1 2.5 2.5 1.1-2.5 1.1-1.1 2.5-1.1-2.5-2.5-1.1 2.5-1.1 1.1-2.5z" opacity=".9"/>
  </g>
</svg>
